# xmcd
#
# Track frame offsets: 
#        150
#        11441
#        22293
#        37144
#        55560
#        69781
#        84873
#
# Disc length: 1418 seconds
#
# Revision: 0
# Processed by: cddbd v1.5.2PL0 Copyright (c) Steve Scherf et al.
# Submitted via: ExactAudioCopy v0.99pb4
#
DISCID=4b058807
DTITLE=Τακης Σωτηρχελλης - Ταξιδι Στη Βροχη
DYEAR=2003
DGENRE=A Cappella
TTITLE0=Ταξιδι Στη Βροχη (Acapella)
TTITLE1=Βαλς Του Αποχωρισμου
TTITLE2=Ερχεσαι Φευγεις
TTITLE3=Αφηνω Τον Παραδεισο
TTITLE4=Ελενη
TTITLE5=Τραγουδω Για Ονειρα
TTITLE6=Ταξιδι Στη Βροχη
EXTD=
EXTT0=
EXTT1=
EXTT2=
EXTT3=
EXTT4=
EXTT5=
EXTT6=
PLAYORDER=
